<?xml version="1.0" encoding="UTF-8"?>
<svg id="Layer_1" xmlns="http://www.w3.org/2000/svg" width="123.95" height="160.74" viewBox="0 0 123.95 160.74">
  <path d="M90.72,80.03c-10.58-10.81-22.92-19.24-37.02-25.29-14.1-6.05-29.05-9.08-44.84-9.08v8.51c19.16,0,36.9,4.75,53.23,14.26,16.33,9.5,29.24,22.42,38.74,38.74,9.5,16.33,14.26,34.07,14.26,53.23v-43.23c-5.67-13.95-13.8-26.33-24.37-37.13Z" style="stroke: #000; stroke-linecap: round; stroke-width: .71px;"/>
  <polygon points="8.86 .35 .35 .35 .35 160.39 8.86 160.39 8.86 54.16 8.86 45.65 8.86 .35" style="stroke: #000; stroke-linecap: round; stroke-width: .71px;"/>
  <polygon points="115.09 .35 115.09 117.16 115.09 160.39 123.6 160.39 123.6 .35 115.09 .35" style="stroke: #000; stroke-linecap: round; stroke-width: .71px;"/>
</svg>