<?xml version="1.0" encoding="UTF-8"?>
<svg id="Layer_2" xmlns="http://www.w3.org/2000/svg" width="833.01" height="315.56" viewBox="0 0 833.01 315.56">
  <g id="Layer_1-2" data-name="Layer_1">
    <g>
      <path d="M45,25v31h34v25h-34v38h35v24H3V0h76v25h-34Z" style="fill: #fff;"/>
      <path d="M189,25h-30v118h-42V25h-31V0h103v25Z" style="fill: #fff;"/>
      <path d="M304,1v142h-42v-61h-22v61h-42V1h42v57h22V1h42Z" style="fill: #fff;"/>
      <path d="M400.38,0l22.76,143h-41.98l-12.23-94h-2.98l-12.23,94h-41.98L335.09,0h65.29ZM348,108v-25h38v25h-38Z" style="fill: #fff;"/>
      <path d="M541,0v143h-46.21l-28.92-93h-2.38l9.24,93h-41.73V0h45.91l30.11,94h2.39L499.27,0h41.73Z" style="fill: #fff;"/>
      <path d="M103,195h-31v118H30v-118H0v-25h103v25Z" style="fill: #fff;"/>
      <path d="M163.51,170c17.27,0,30.67,3.17,40.2,9.5,9.53,6.33,14.29,15.97,14.29,28.91v1.1c0,5.71-.95,10.7-2.86,14.97-1.91,4.28-4.32,7.91-7.22,10.9-2.91,2.99-6.22,5.3-9.93,6.93-3.71,1.63-7.37,2.58-10.99,2.85v1.83c3.61.41,7.27,1.46,10.99,3.16,3.71,1.7,7.02,4.04,9.93,7.03,2.91,2.99,5.31,6.55,7.22,10.7,1.9,4.14,2.86,8.8,2.86,13.96v2.24c0,6.11.15,11.44.45,15.99.3,4.55,1.15,8.86,2.56,12.94h-41.98c-1.41-4.38-2.27-8.96-2.57-13.75-.3-4.79-.45-10.06-.45-15.8v-14.78c0-3.69-1.06-6.39-3.18-8.11-2.12-1.71-5.5-2.56-10.14-2.56h-9.68v55h-41v-143h51.51ZM153,234h9.68c4.64,0,8.02-.89,10.14-2.67,2.12-1.78,3.18-4.58,3.18-8.42v-16.63c0-3.83-1.06-6.67-3.18-8.52-2.12-1.85-5.5-2.77-10.14-2.77h-9.68v39Z" style="fill: #fff;"/>
      <path d="M311.98,170l22.76,143h-41.98l-12.23-94h-2.98l-12.23,94h-41.98l23.36-143h65.29ZM260,278v-25h38v25h-38Z" style="fill: #fff;"/>
      <path d="M453,170v143h-46.21l-28.92-93h-2.38l9.24,93h-41.73v-143h45.91l30.11,94h2.39l-10.14-94h41.73Z" style="fill: #fff;"/>
      <path d="M530,221v-17.32c0-3.39-1.05-6.01-3.15-7.84s-5.05-2.75-8.85-2.75-6.75.92-8.85,2.75-3.15,4.45-3.15,7.84v9.66c0,2.04.3,3.87.9,5.5s1.79,3.13,3.58,4.48c1.79,1.36,4.43,2.75,7.91,4.18,3.48,1.43,8.21,3.09,14.19,4.99l9.85,3.06c5.57,1.77,10.25,3.77,14.04,6.01,3.78,2.24,6.82,4.86,9.11,7.84,2.29,2.99,3.93,6.55,4.93,10.69.99,4.14,1.49,9,1.49,14.57v3.62c0,11.95-4.77,21.16-14.32,27.61-9.55,6.45-22.97,9.68-40.28,9.68s-30.53-3.19-39.68-9.58c-9.15-6.38-13.72-15.62-13.72-27.71v-15.28h42v17.32c0,3.4,1.02,6.01,3.07,7.84,2.05,1.83,5.02,2.75,8.93,2.75,3.7,0,6.63-.88,8.78-2.65,2.14-1.76,3.22-4.34,3.22-7.74v-11.01c0-2.14-.29-3.98-.88-5.52-.59-1.54-1.72-2.94-3.38-4.21-1.67-1.27-4.12-2.57-7.35-3.91-3.24-1.33-7.6-2.87-13.09-4.61l-11.18-3.61c-5.49-1.74-10.1-3.74-13.82-6.02-3.73-2.27-6.72-4.95-8.97-8.02-2.26-3.08-3.87-6.65-4.85-10.73-.98-4.08-1.47-8.86-1.47-14.34v-3c0-11.95,4.57-21.12,13.71-27.5,9.14-6.38,22.25-9.58,39.34-9.58s30.6,3.23,39.94,9.68c9.34,6.45,14.01,15.58,14.01,27.4v15.48h-42Z" style="fill: #fff;"/>
      <path d="M626,170v143h-42v-143h42Z" style="fill: #fff;"/>
      <path d="M679,195v31h34v25h-34v38h35v24h-77v-143h76v25h-34Z" style="fill: #fff;"/>
      <path d="M775.51,170c17.27,0,30.67,3.17,40.2,9.5,9.53,6.33,14.29,15.97,14.29,28.91v1.1c0,5.71-.95,10.7-2.86,14.97-1.91,4.28-4.32,7.91-7.22,10.9-2.91,2.99-6.22,5.3-9.93,6.93-3.72,1.63-7.37,2.58-10.99,2.85v1.83c3.61.41,7.27,1.46,10.99,3.16,3.71,1.7,7.02,4.04,9.93,7.03,2.91,2.99,5.31,6.55,7.22,10.7,1.9,4.14,2.86,8.8,2.86,13.96v2.24c0,6.11.15,11.44.45,15.99.3,4.55,1.15,8.86,2.56,12.94h-41.98c-1.41-4.38-2.27-8.96-2.57-13.75-.3-4.79-.45-10.06-.45-15.8v-14.78c0-3.69-1.06-6.39-3.18-8.11-2.12-1.71-5.5-2.56-10.14-2.56h-9.68v55h-41v-143h51.51ZM765,234h9.68c4.64,0,8.02-.89,10.14-2.67,2.12-1.78,3.18-4.58,3.18-8.42v-16.63c0-3.83-1.06-6.67-3.18-8.52-2.12-1.85-5.5-2.77-10.14-2.77h-9.68v39Z" style="fill: #fff;"/>
    </g>
  </g>
</svg>